<?xml version="1.0" encoding="iso-8859-1"?>
<!-- Generator: Adobe Illustrator 19.0.0, SVG Export Plug-In . SVG Version: 6.00 Build 0)  -->
<svg version="1.1" id="Capa_1" xmlns="http://www.w3.org/2000/svg" xmlns:xlink="http://www.w3.org/1999/xlink" x="0px" y="0px"
	 viewBox="0 0 489.7 489.7" style="enable-background:new 0 0 489.7 489.7;" xml:space="preserve">
<g>
	<path d="M74.25,0v489.7h341.2V0H74.25z M118.95,44.7h251.9v116.6h-251.9V44.7z M176.85,445.1h-58.3v-47.8h58.3V445.1z
		 M176.85,352.2h-58.3v-47.8h58.3V352.2z M176.85,259.3h-58.3v-47.8h58.3V259.3z M273.95,445.1h-58.3v-47.8h58.3V445.1z
		 M273.95,352.2h-58.3v-47.8h58.3V352.2z M273.95,259.3h-58.3v-47.8h58.3V259.3z M370.75,445.1h-58.3v-47.8h58.3V445.1z
		 M370.75,352.2h-58.3v-47.8h58.3V352.2z M370.75,259.3h-58.3v-47.8h58.3V259.3z"/>
</g>
<g>
</g>
<g>
</g>
<g>
</g>
<g>
</g>
<g>
</g>
<g>
</g>
<g>
</g>
<g>
</g>
<g>
</g>
<g>
</g>
<g>
</g>
<g>
</g>
<g>
</g>
<g>
</g>
<g>
</g>
</svg>
